<svg width="18" height="18" viewBox="0 0 18 18" fill="none" xmlns="http://www.w3.org/2000/svg">
<path d="M5.47018 5.78027C5.32957 5.63963 5.25059 5.4489 5.25059 5.25002C5.25059 5.05115 5.32957 4.86042 5.47018 4.71977L8.47018 1.71977C8.61082 1.57917 8.80155 1.50018 9.00043 1.50018C9.1993 1.50018 9.39003 1.57917 9.53068 1.71977L12.5307 4.71977C12.6023 4.78896 12.6594 4.87172 12.6988 4.96322C12.7381 5.05472 12.7587 5.15314 12.7596 5.25272C12.7605 5.35231 12.7415 5.45107 12.7038 5.54324C12.6661 5.63541 12.6104 5.71915 12.54 5.78957C12.4696 5.85999 12.3858 5.91568 12.2936 5.95339C12.2015 5.9911 12.1027 6.01008 12.0031 6.00921C11.9035 6.00835 11.8051 5.98766 11.7136 5.94835C11.6221 5.90904 11.5394 5.85191 11.4702 5.78027L9.00043 3.31052L6.53068 5.78027C6.39003 5.92088 6.1993 5.99986 6.00043 5.99986C5.80155 5.99986 5.61082 5.92088 5.47018 5.78027ZM5.47018 13.2803L8.47018 16.2803C8.61082 16.4209 8.80155 16.4999 9.00043 16.4999C9.1993 16.4999 9.39003 16.4209 9.53068 16.2803L12.5307 13.2803C12.6673 13.1388 12.7429 12.9494 12.7412 12.7527C12.7395 12.5561 12.6606 12.368 12.5215 12.2289C12.3825 12.0899 12.1944 12.011 11.9977 12.0093C11.8011 12.0076 11.6116 12.0832 11.4702 12.2198L9.00043 14.6895L6.53068 12.2198C6.46149 12.1481 6.37873 12.091 6.28723 12.0517C6.19573 12.0124 6.09731 11.9917 5.99773 11.9908C5.89814 11.99 5.79938 12.0089 5.70721 12.0467C5.61504 12.0844 5.5313 12.1401 5.46088 12.2105C5.39046 12.2809 5.33477 12.3646 5.29706 12.4568C5.25935 12.549 5.24037 12.6477 5.24124 12.7473C5.2421 12.8469 5.26279 12.9453 5.3021 13.0368C5.34141 13.1283 5.39854 13.2111 5.47018 13.2803V13.2803Z" fill="#141A21"/>
</svg>
