<svg width="19" height="18" viewBox="0 0 19 18" fill="none" xmlns="http://www.w3.org/2000/svg">
<path d="M9.86079 11.25C11.1225 11.25 12.1454 10.2426 12.1454 9C12.1454 7.75736 11.1225 6.75 9.86079 6.75C8.59903 6.75 7.57617 7.75736 7.57617 9C7.57617 10.2426 8.59903 11.25 9.86079 11.25Z" stroke="#141A21" stroke-width="1.5" stroke-miterlimit="10" stroke-linecap="round" stroke-linejoin="round"/>
<path d="M2.24609 9.66001V8.34001C2.24609 7.56001 2.8934 6.91501 3.69302 6.91501C5.0714 6.91501 5.63494 5.95501 4.94194 4.77751C4.54594 4.10251 4.78202 3.22501 5.47502 2.83501L6.79248 2.09251C7.39409 1.74001 8.17086 1.95001 8.52879 2.54251L8.61255 2.68501C9.29794 3.86251 10.425 3.86251 11.118 2.68501L11.2018 2.54251C11.5597 1.95001 12.3365 1.74001 12.9381 2.09251L14.2556 2.83501C14.9486 3.22501 15.1846 4.10251 14.7886 4.77751C14.0956 5.95501 14.6592 6.91501 16.0376 6.91501C16.8296 6.91501 17.4845 7.55251 17.4845 8.34001V9.66001C17.4845 10.44 16.8372 11.085 16.0376 11.085C14.6592 11.085 14.0956 12.045 14.7886 13.2225C15.1846 13.905 14.9486 14.775 14.2556 15.165L12.9381 15.9075C12.3365 16.26 11.5597 16.05 11.2018 15.4575L11.118 15.315C10.4326 14.1375 9.30555 14.1375 8.61255 15.315L8.52879 15.4575C8.17086 16.05 7.39409 16.26 6.79248 15.9075L5.47502 15.165C4.78202 14.775 4.54594 13.8975 4.94194 13.2225C5.63494 12.045 5.0714 11.085 3.69302 11.085C2.8934 11.085 2.24609 10.44 2.24609 9.66001Z" stroke="#141A21" stroke-width="1.5" stroke-miterlimit="10" stroke-linecap="round" stroke-linejoin="round"/>
</svg>
