<svg width="16" height="16" viewBox="0 0 16 16" fill="none" xmlns="http://www.w3.org/2000/svg">
<g id="Iconly/Bold/Arrow - Down 2">
<g id="Arrow - Down 2">
<path id="Arrow - Down 2_2" d="M7.246 11.0872C7.20733 11.0495 7.042 10.9073 6.906 10.7748C6.05067 9.99807 4.65067 7.97177 4.22333 6.91121C4.15467 6.75014 4.00933 6.34293 4 6.12537C4 5.91689 4.048 5.71816 4.14533 5.52852C4.28133 5.29211 4.49533 5.10247 4.748 4.99856C4.92333 4.93167 5.448 4.82775 5.45733 4.82775C6.03133 4.72384 6.964 4.66669 7.99467 4.66669C8.97667 4.66669 9.87133 4.72384 10.454 4.80892C10.4633 4.81866 11.1153 4.92257 11.3387 5.03623C11.7467 5.2447 12 5.65191 12 6.0877V6.12537C11.99 6.40918 11.7367 7.00603 11.7273 7.00603C11.2993 8.00944 9.968 9.98898 9.08333 10.7846C9.08333 10.7846 8.856 11.0086 8.714 11.106C8.51 11.258 8.25733 11.3334 8.00467 11.3334C7.72267 11.3334 7.46 11.2483 7.246 11.0872Z" fill="#ADB3CC"/>
</g>
</g>
</svg>
