<svg width="20" height="20" viewBox="0 0 20 20" fill="none" xmlns="http://www.w3.org/2000/svg">
<path d="M16.4746 9.70447C15.8658 8.9936 15.5892 8.37757 15.5892 7.33098V6.97513C15.5892 5.6113 15.2753 4.73257 14.5929 3.85385C13.541 2.48918 11.7703 1.66669 10.0368 1.66669H9.96313C8.26612 1.66669 6.55088 2.45141 5.48082 3.76069C4.7611 4.65704 4.41076 5.57353 4.41076 6.97513V7.33098C4.41076 8.37757 4.15236 8.9936 3.5254 9.70447C3.06408 10.2282 2.91666 10.9013 2.91666 11.6298C2.91666 12.3591 3.15601 13.0498 3.63638 13.6113C4.26334 14.2844 5.1487 14.7141 6.05312 14.7888C7.36253 14.9382 8.67194 14.9944 10.0004 14.9944C11.328 14.9944 12.6375 14.9004 13.9477 14.7888C14.8513 14.7141 15.7366 14.2844 16.3636 13.6113C16.8431 13.0498 17.0833 12.3591 17.0833 11.6298C17.0833 10.9013 16.9359 10.2282 16.4746 9.70447Z" fill="#ADB3CC"/>
<path opacity="0.4" d="M11.6739 16.0236C11.2573 15.9347 8.71882 15.9347 8.30223 16.0236C7.9461 16.1059 7.56097 16.2972 7.56097 16.7169C7.58168 17.1172 7.81607 17.4705 8.14073 17.6946L8.1399 17.6955C8.5598 18.0228 9.05259 18.2309 9.56857 18.3056C9.84354 18.3434 10.1235 18.3417 10.4084 18.3056C10.9235 18.2309 11.4163 18.0228 11.8362 17.6955L11.8354 17.6946C12.1601 17.4705 12.3945 17.1172 12.4152 16.7169C12.4152 16.2972 12.03 16.1059 11.6739 16.0236Z" fill="#ADB3CC"/>
</svg>
