<svg width="14" height="18" viewBox="0 0 14 18" fill="none" xmlns="http://www.w3.org/2000/svg">
<path opacity="0.4" d="M6.99269 14.5179L1.58291 17.2201C1.17438 17.4418 0.664776 17.2938 0.436277 16.8869C0.369544 16.759 0.334255 16.6169 0.333374 16.4724V10.424C0.333374 11.0237 0.671485 11.3938 1.56086 11.8084L6.99269 14.5179Z" fill="#ADB3CC"/>
<path fill-rule="evenodd" clip-rule="evenodd" d="M4.41276 0.666664H9.55792C11.8144 0.666664 13.6447 1.55504 13.6667 3.8278V16.4724C13.6658 16.6145 13.6305 16.7543 13.5638 16.8795C13.4567 17.0839 13.2717 17.2356 13.0513 17.2998C12.8309 17.364 12.594 17.3352 12.3951 17.2201L6.99269 14.5179L1.56086 11.8084C0.671485 11.3938 0.333374 11.0237 0.333374 10.424V3.8278C0.333374 1.55504 2.16358 0.666664 4.41276 0.666664ZM3.85414 7.01856H10.1239C10.4852 7.01856 10.7781 6.72357 10.7781 6.35968C10.7781 5.99579 10.4852 5.7008 10.1239 5.7008H3.85414C3.49285 5.7008 3.19997 5.99579 3.19997 6.35968C3.19997 6.72357 3.49285 7.01856 3.85414 7.01856Z" fill="#ADB3CC"/>
</svg>
