<svg width="20" height="20" viewBox="0 0 20 20" fill="none" xmlns="http://www.w3.org/2000/svg">
<path opacity="0.4" d="M13.6166 1.6665H6.39163C3.56663 1.6665 1.66663 3.64983 1.66663 6.59983V13.4082C1.66663 16.3498 3.56663 18.3332 6.39163 18.3332H13.6166C16.4416 18.3332 18.3333 16.3498 18.3333 13.4082V6.59983C18.3333 3.64983 16.4416 1.6665 13.6166 1.6665Z" fill="#ADB3CC"/>
<path fill-rule="evenodd" clip-rule="evenodd" d="M9.27052 6.82441C9.27052 7.22608 9.59636 7.55358 9.99552 7.55358C10.4064 7.55358 10.733 7.22608 10.733 6.82441C10.733 6.42275 10.4064 6.09525 10.0039 6.09525C9.59969 6.09525 9.27052 6.42275 9.27052 6.82441ZM10.7247 9.46841C10.7247 9.06675 10.3972 8.73925 9.99552 8.73925C9.59386 8.73925 9.26636 9.06675 9.26636 9.46841V13.1517C9.26636 13.5534 9.59386 13.8809 9.99552 13.8809C10.3972 13.8809 10.7247 13.5534 10.7247 13.1517V9.46841Z" fill="#ADB3CC"/>
</svg>
