<svg width="20" height="20" viewBox="0 0 20 20" fill="none" xmlns="http://www.w3.org/2000/svg">
<path opacity="0.4" d="M18.3333 13.2835C18.3333 15.6085 16.4666 17.4918 14.1416 17.5002H14.1333H5.87496C3.55829 17.5002 1.66663 15.6252 1.66663 13.3002V13.2918C1.66663 13.2918 1.67163 9.60351 1.67829 7.74851C1.67913 7.40017 2.07913 7.20517 2.35163 7.42184C4.33163 8.99267 7.87246 11.8568 7.91663 11.8943C8.50829 12.3685 9.25829 12.636 10.025 12.636C10.7916 12.636 11.5416 12.3685 12.1333 11.8852C12.1775 11.856 15.6391 9.07767 17.6491 7.48101C17.9225 7.26351 18.3241 7.45851 18.325 7.80601C18.3333 9.64684 18.3333 13.2835 18.3333 13.2835Z" fill="#ADB3CC"/>
<path d="M17.8966 4.728C17.1749 3.368 15.7549 2.49966 14.1916 2.49966H5.87494C4.31161 2.49966 2.89161 3.368 2.16994 4.728C2.00828 5.03216 2.08494 5.41133 2.35411 5.62633L8.54161 10.5755C8.97494 10.9255 9.49994 11.0997 10.0249 11.0997C10.0283 11.0997 10.0308 11.0997 10.0333 11.0997C10.0358 11.0997 10.0391 11.0997 10.0416 11.0997C10.5666 11.0997 11.0916 10.9255 11.5249 10.5755L17.7124 5.62633C17.9816 5.41133 18.0583 5.03216 17.8966 4.728Z" fill="#ADB3CC"/>
</svg>
