<svg width="20" height="20" viewBox="0 0 20 20" fill="none" xmlns="http://www.w3.org/2000/svg">
<path opacity="0.4" d="M15.674 7.51749C15.2977 7.51749 14.7993 7.50916 14.1788 7.50916C12.6655 7.50916 11.4212 6.25666 11.4212 4.72916V2.04916C11.4212 1.83832 11.2529 1.66666 11.0442 1.66666H6.63631C4.57926 1.66666 2.91663 3.35499 2.91663 5.42416V14.4033C2.91663 16.5742 4.65848 18.3333 6.80794 18.3333H13.3719C15.4215 18.3333 17.0833 16.6558 17.0833 14.585V7.89249C17.0833 7.68082 16.9158 7.50999 16.7062 7.51082C16.3539 7.51332 15.9314 7.51749 15.674 7.51749Z" fill="#ADB3CC"/>
<path opacity="0.4" d="M13.4033 2.13941C13.1541 1.88025 12.7191 2.05858 12.7191 2.41775V4.61525C12.7191 5.53691 13.4783 6.29525 14.3999 6.29525C14.9808 6.30191 15.7874 6.30358 16.4724 6.30191C16.8233 6.30108 17.0016 5.88191 16.7583 5.62858C15.8791 4.71441 14.3049 3.07608 13.4033 2.13941Z" fill="#ADB3CC"/>
<path fill-rule="evenodd" clip-rule="evenodd" d="M7.47815 9.48964H10.299C10.6415 9.48964 10.9198 9.21214 10.9198 8.86964C10.9198 8.52714 10.6415 8.24881 10.299 8.24881H7.47815C7.13565 8.24881 6.85815 8.52714 6.85815 8.86964C6.85815 9.21214 7.13565 9.48964 7.47815 9.48964ZM7.47824 13.6515H12.0149C12.3574 13.6515 12.6357 13.374 12.6357 13.0315C12.6357 12.689 12.3574 12.4106 12.0149 12.4106H7.47824C7.13574 12.4106 6.85824 12.689 6.85824 13.0315C6.85824 13.374 7.13574 13.6515 7.47824 13.6515Z" fill="#ADB3CC"/>
</svg>
