<svg width="20" height="20" viewBox="0 0 20 20" fill="none" xmlns="http://www.w3.org/2000/svg">
<path opacity="0.4" d="M17.7758 6.20212C17.4266 5.98215 16.9975 5.96269 16.6316 6.14882L15.3966 6.77234C14.94 7.00246 14.6566 7.46777 14.6566 7.98554V12.8468C14.6566 13.3646 14.94 13.829 15.3966 14.0608L16.6308 14.6835C16.7983 14.7698 16.9775 14.8113 17.1566 14.8113C17.3716 14.8113 17.585 14.7503 17.7758 14.6311C18.125 14.4119 18.3333 14.0321 18.3333 13.6158V7.21819C18.3333 6.80195 18.125 6.42208 17.7758 6.20212Z" fill="#ADB3CC"/>
<path d="M9.92088 16.6667H5.09416C3.07581 16.6667 1.66663 15.275 1.66663 13.2826V7.55076C1.66663 5.55753 3.07581 4.16667 5.09416 4.16667H9.92088C11.9392 4.16667 13.3484 5.55753 13.3484 7.55076V13.2826C13.3484 15.275 11.9392 16.6667 9.92088 16.6667Z" fill="#ADB3CC"/>
</svg>
