<svg width="10" height="15" viewBox="0 0 10 15" fill="none" xmlns="http://www.w3.org/2000/svg">
<path d="M4.68253 14.179C3.76634 14.179 2.95668 14.0213 2.25355 13.706C1.55469 13.3906 1.0071 12.956 0.610796 12.402C0.214489 11.848 0.0184659 11.2173 0.0227273 10.5099C0.0184659 9.95597 0.131392 9.44673 0.361506 8.98224C0.595881 8.51349 0.913352 8.12358 1.31392 7.8125C1.71449 7.49716 2.16193 7.29688 2.65625 7.21165V7.13494C2.00426 6.97727 1.48224 6.62784 1.0902 6.08665C0.698154 5.54545 0.504261 4.9233 0.508523 4.22017C0.504261 3.55114 0.681108 2.95454 1.03906 2.4304C1.40128 1.90199 1.89773 1.48651 2.52841 1.18395C3.15909 0.881392 3.87713 0.730113 4.68253 0.730113C5.4794 0.730113 6.19105 0.883522 6.81747 1.19034C7.44815 1.4929 7.9446 1.90838 8.30682 2.43679C8.66903 2.96094 8.85227 3.5554 8.85653 4.22017C8.85227 4.9233 8.65199 5.54545 8.25568 6.08665C7.85938 6.62784 7.34375 6.97727 6.70881 7.13494V7.21165C7.19886 7.29688 7.63991 7.49716 8.03196 7.8125C8.42827 8.12358 8.74361 8.51349 8.97798 8.98224C9.21662 9.44673 9.33807 9.95597 9.34233 10.5099C9.33807 11.2173 9.13778 11.848 8.74148 12.402C8.34517 12.956 7.79545 13.3906 7.09233 13.706C6.39347 14.0213 5.5902 14.179 4.68253 14.179ZM4.68253 12.5618C5.22372 12.5618 5.69247 12.4723 6.08878 12.2933C6.48509 12.1101 6.7919 11.8565 7.00923 11.5327C7.22656 11.2045 7.33736 10.821 7.34162 10.3821C7.33736 9.92614 7.21804 9.52344 6.98366 9.17401C6.75355 8.82457 6.44034 8.54972 6.04403 8.34943C5.64773 8.14915 5.19389 8.04901 4.68253 8.04901C4.1669 8.04901 3.70881 8.14915 3.30824 8.34943C2.90767 8.54972 2.59233 8.82457 2.36222 9.17401C2.1321 9.52344 2.01918 9.92614 2.02344 10.3821C2.01918 10.821 2.12358 11.2045 2.33665 11.5327C2.55398 11.8565 2.86293 12.1101 3.26349 12.2933C3.66406 12.4723 4.13707 12.5618 4.68253 12.5618ZM4.68253 6.47017C5.11719 6.47017 5.50284 6.38281 5.83949 6.2081C6.17614 6.03338 6.44034 5.79048 6.6321 5.4794C6.82813 5.16832 6.92827 4.80398 6.93253 4.38636C6.92827 3.97727 6.83026 3.61932 6.63849 3.3125C6.45099 3.00568 6.18892 2.76918 5.85227 2.60298C5.51563 2.43253 5.12571 2.3473 4.68253 2.3473C4.23082 2.3473 3.83452 2.43253 3.49361 2.60298C3.15696 2.76918 2.89489 3.00568 2.70739 3.3125C2.51989 3.61932 2.42827 3.97727 2.43253 4.38636C2.42827 4.80398 2.52202 5.16832 2.71378 5.4794C2.90554 5.79048 3.16974 6.03338 3.50639 6.2081C3.8473 6.38281 4.23935 6.47017 4.68253 6.47017Z" fill="#141A21"/>
</svg>
