<svg width="28" height="28" viewBox="0 0 28 28" fill="none" xmlns="http://www.w3.org/2000/svg">
<path fill-rule="evenodd" clip-rule="evenodd" d="M13.9274 4.01041C10.946 4.01041 8.55114 6.40523 8.55114 9.3867C8.55114 12.369 10.9458 14.7641 13.9274 14.7641C16.9091 14.7641 19.3037 12.369 19.3037 9.3867C19.3037 6.40523 16.9089 4.01041 13.9274 4.01041ZM13.9274 5.76041C15.9424 5.76041 17.5537 7.37173 17.5537 9.3867C17.5537 11.4026 15.9425 13.0141 13.9274 13.0141C11.9123 13.0141 10.3011 11.4026 10.3011 9.3867C10.3011 7.37173 11.9125 5.76041 13.9274 5.76041ZM7.33837 5.10926C7.82162 5.10926 8.21337 5.50101 8.21337 5.98426C8.21337 6.46751 7.82162 6.85926 7.33837 6.85926C5.95194 6.85926 4.82751 7.9832 4.82751 9.36905C4.82751 10.7549 5.95194 11.8788 7.33837 11.8788C7.82162 11.8788 8.21337 12.2706 8.21337 12.7538C8.21337 13.2371 7.82162 13.6288 7.33837 13.6288C4.98562 13.6288 3.07751 11.7216 3.07751 9.36905C3.07751 7.01653 4.98562 5.10926 7.33837 5.10926ZM24.7883 9.36905C24.7883 7.01653 22.8802 5.10926 20.5274 5.10926C20.0442 5.10926 19.6524 5.50101 19.6524 5.98426C19.6524 6.46751 20.0442 6.85926 20.5274 6.85926C21.9138 6.85926 23.0383 7.9832 23.0383 9.36905C23.0383 10.7549 21.9138 11.8788 20.5274 11.8788C20.0442 11.8788 19.6524 12.2706 19.6524 12.7538C19.6524 13.2371 20.0442 13.6288 20.5274 13.6288C22.8802 13.6288 24.7883 11.7216 24.7883 9.36905ZM23.9119 15.8141C23.3516 15.6877 22.7529 15.6013 22.1442 15.5593C21.6621 15.526 21.2443 15.8899 21.2111 16.372C21.1778 16.8541 21.5417 17.2719 22.0238 17.3051C22.5447 17.3411 23.0552 17.4148 23.5516 17.5265C24.3236 17.678 24.8269 17.929 24.9518 18.1908C25.0458 18.3884 25.0458 18.6207 24.9509 18.8207C24.8277 19.0798 24.3286 19.3296 23.5675 19.4861C23.0942 19.5834 22.7894 20.0461 22.8867 20.5194C22.984 20.9927 23.4467 21.2976 23.92 21.2002C25.1779 20.9416 26.0993 20.4803 26.5316 19.5715C26.8522 18.8958 26.8522 18.1121 26.5317 17.4382C26.0963 16.5259 25.159 16.0583 23.9119 15.8141ZM6.65472 16.372C6.62147 15.8899 6.2037 15.526 5.72159 15.5593C5.11284 15.6013 4.51414 15.6877 3.92991 15.8192L3.68905 15.8701C2.58349 16.1227 1.74005 16.587 1.3352 17.4381C1.01337 18.1114 1.01337 18.8965 1.33554 19.5722C1.76595 20.4801 2.68736 20.9415 3.94578 21.2002C4.41912 21.2976 4.88175 20.9927 4.97909 20.5194C5.07642 20.0461 4.77161 19.5834 4.29826 19.4861C3.53749 19.3296 3.03889 19.08 2.91601 18.8208C2.82028 18.62 2.82028 18.3891 2.91483 18.1912C3.03965 17.9288 3.54244 17.6779 4.29013 17.5315L4.6789 17.4519C5.06644 17.3803 5.45129 17.3321 5.842 17.3051C6.3241 17.2719 6.68797 16.8541 6.65472 16.372ZM6.02832 20.0486C6.02832 17.265 8.90758 16.2861 13.9274 16.2861L14.2831 16.2878C19.0932 16.333 21.8265 17.3141 21.8265 20.0283C21.8265 22.6786 19.2137 23.6934 14.6297 23.7841L13.9274 23.7908C8.89608 23.7908 6.02832 22.8291 6.02832 20.0486ZM20.0765 20.0283C20.0765 18.7327 17.9992 18.0361 13.9274 18.0361C9.85961 18.0361 7.77832 18.7437 7.77832 20.0486C7.77832 21.3444 9.85497 22.0408 13.9274 22.0408C17.994 22.0408 20.0765 21.3326 20.0765 20.0283Z" fill="#DDEFFA"/>
</svg>
