<svg width="24" height="24" viewBox="0 0 24 24" fill="none" xmlns="http://www.w3.org/2000/svg">
<path fill-rule="evenodd" clip-rule="evenodd" d="M17.0853 0.333344H6.91474C2.96518 0.333344 0.333344 3.15656 0.333344 7.20871V16.7913C0.333344 20.8473 2.95825 23.6667 6.91474 23.6667H17.0853C21.0418 23.6667 23.6667 20.8473 23.6667 16.7913V7.20871C23.6667 3.15277 21.0418 0.333344 17.0853 0.333344ZM6.91474 1.96125H17.0853C20.1157 1.96125 22.0388 4.02686 22.0388 7.20871V16.7913C22.0388 19.9732 20.1157 22.0388 17.0853 22.0388H6.91474C3.88435 22.0388 1.96125 19.9732 1.96125 16.7913V7.20871C1.96125 4.03109 3.89078 1.96125 6.91474 1.96125ZM12.8479 6.37543C12.794 5.97814 12.4534 5.67193 12.0414 5.67193C11.5918 5.67193 11.2274 6.03635 11.2274 6.48588V17.4935L11.2348 17.6039C11.2887 18.0012 11.6293 18.3074 12.0414 18.3074C12.4909 18.3074 12.8553 17.943 12.8553 17.4935V6.48588L12.8479 6.37543ZM7.78328 9.93793C7.72938 9.54064 7.38883 9.23443 6.97675 9.23443C6.52722 9.23443 6.1628 9.59885 6.1628 10.0484V17.4935L6.17023 17.6039C6.22413 18.0012 6.56468 18.3074 6.97675 18.3074C7.42629 18.3074 7.79071 17.943 7.79071 17.4935V10.0484L7.78328 9.93793ZM17.0233 13.1687C17.4353 13.1687 17.7759 13.4749 17.8298 13.8722L17.8372 13.9826V17.4935C17.8372 17.943 17.4728 18.3074 17.0233 18.3074C16.6112 18.3074 16.2706 18.0012 16.2167 17.6039L16.2093 17.4935V13.9826C16.2093 13.5331 16.5737 13.1687 17.0233 13.1687Z" fill="#ADB3CC"/>
</svg>
