<svg width="28" height="28" viewBox="0 0 28 28" fill="none" xmlns="http://www.w3.org/2000/svg">
<path fill-rule="evenodd" clip-rule="evenodd" d="M14.3362 4.67228L14.0023 4.66666C9.17124 4.66666 4.81745 8.07692 2.40438 13.6568C2.30962 13.8759 2.30962 14.1241 2.40438 14.3432L2.57159 14.7196C4.95409 19.942 9.07133 23.1751 13.6637 23.3277L13.9976 23.3333C18.8287 23.3333 23.1825 19.9231 25.5956 14.3432C25.6915 14.1213 25.6903 13.8698 25.5921 13.6489L25.4296 13.2832C23.0413 8.05105 18.9223 4.8247 14.3362 4.67228ZM14.0105 6.40431L14.2892 6.41031L14.6008 6.42652C18.3308 6.69063 21.7613 9.45644 23.8338 13.9989L23.823 14.027C21.6985 18.6672 18.1497 21.4495 14.302 21.5891L14.0046 21.5936L13.7047 21.5896L13.394 21.5734C9.77981 21.3174 6.44742 18.7068 4.36232 14.4196L4.16498 13.9989L4.34765 13.6105C6.54635 9.06866 10.14 6.4053 14.0105 6.40431ZM13.9994 9.4657C11.4789 9.4657 9.43656 11.4953 9.43656 14.0002C9.43656 16.5042 11.4791 18.5336 13.9994 18.5336C16.5198 18.5336 18.5634 16.5041 18.5634 14.0002C18.5634 11.4954 16.52 9.4657 13.9994 9.4657ZM13.9994 11.2044C15.5536 11.2044 16.8134 12.4558 16.8134 14.0002C16.8134 15.5436 15.5535 16.7949 13.9994 16.7949C12.4456 16.7949 11.1866 15.5439 11.1866 14.0002C11.1866 12.4555 12.4455 11.2044 13.9994 11.2044Z" fill="#ADB3CC"/>
</svg>
